<svg width="12" height="14" viewBox="0 0 12 14" fill="none" xmlns="http://www.w3.org/2000/svg">
<path d="M10 9.65625L11.3438 11V11.6562H0.65625V11L2 9.65625V6.34375C2 5.30208 2.26042 4.39583 2.78125 3.625C3.32292 2.85417 4.0625 2.35417 5 2.125V1.65625C5 1.38542 5.09375 1.15625 5.28125 0.96875C5.46875 0.760417 5.70833 0.65625 6 0.65625C6.29167 0.65625 6.53125 0.760417 6.71875 0.96875C6.90625 1.15625 7 1.38542 7 1.65625V2.125C7.9375 2.35417 8.66667 2.85417 9.1875 3.625C9.72917 4.39583 10 5.30208 10 6.34375V9.65625ZM6 13.6562C5.625 13.6562 5.30208 13.5312 5.03125 13.2812C4.78125 13.0312 4.65625 12.7188 4.65625 12.3438H7.34375C7.34375 12.6979 7.20833 13.0104 6.9375 13.2812C6.66667 13.5312 6.35417 13.6562 6 13.6562Z" fill="black"/>
</svg>
