<svg width="16" height="11" viewBox="0 0 16 11" fill="none" xmlns="http://www.w3.org/2000/svg">
<path d="M10.6562 6.15625C11.2396 6.15625 11.875 6.23958 12.5625 6.40625C13.25 6.57292 13.8854 6.84375 14.4688 7.21875C15.0521 7.59375 15.3438 8.02083 15.3438 8.5V10.1562H11.3438V8.5C11.3438 7.58333 10.9062 6.8125 10.0312 6.1875C10.1771 6.16667 10.3854 6.15625 10.6562 6.15625ZM3.4375 6.40625C4.125 6.23958 4.76042 6.15625 5.34375 6.15625C5.92708 6.15625 6.5625 6.23958 7.25 6.40625C7.9375 6.57292 8.5625 6.84375 9.125 7.21875C9.70833 7.59375 10 8.02083 10 8.5V10.1562H0.65625V8.5C0.65625 8.02083 0.947917 7.59375 1.53125 7.21875C2.11458 6.84375 2.75 6.57292 3.4375 6.40625ZM6.71875 4.25C6.34375 4.64583 5.88542 4.84375 5.34375 4.84375C4.80208 4.84375 4.33333 4.64583 3.9375 4.25C3.54167 3.85417 3.34375 3.38542 3.34375 2.84375C3.34375 2.30208 3.54167 1.83333 3.9375 1.4375C4.33333 1.04167 4.80208 0.84375 5.34375 0.84375C5.88542 0.84375 6.34375 1.04167 6.71875 1.4375C7.11458 1.83333 7.3125 2.30208 7.3125 2.84375C7.3125 3.38542 7.11458 3.85417 6.71875 4.25ZM12.0625 4.25C11.6667 4.64583 11.1979 4.84375 10.6562 4.84375C10.1146 4.84375 9.64583 4.64583 9.25 4.25C8.85417 3.85417 8.65625 3.38542 8.65625 2.84375C8.65625 2.30208 8.85417 1.83333 9.25 1.4375C9.64583 1.04167 10.1146 0.84375 10.6562 0.84375C11.1979 0.84375 11.6667 1.04167 12.0625 1.4375C12.4583 1.83333 12.6562 2.30208 12.6562 2.84375C12.6562 3.38542 12.4583 3.85417 12.0625 4.25Z" fill="#AE7AFF"/>
</svg>
