<svg width="12" height="15" viewBox="0 0 12 15" fill="none" xmlns="http://www.w3.org/2000/svg">
<path d="M3.75 11.0625C4.52083 11.4792 5.27083 11.6875 6 11.6875C6.72917 11.6875 7.47917 11.4792 8.25 11.0625C9.02083 10.6458 9.60417 10.1458 10 9.5625C9.97917 8.97917 9.51042 8.48958 8.59375 8.09375C7.67708 7.69792 6.8125 7.5 6 7.5C5.1875 7.5 4.32292 7.69792 3.40625 8.09375C2.48958 8.46875 2.02083 8.95833 2 9.5625C2.39583 10.1458 2.97917 10.6458 3.75 11.0625ZM7.40625 2.75C7.01042 2.35417 6.54167 2.15625 6 2.15625C5.45833 2.15625 4.98958 2.35417 4.59375 2.75C4.19792 3.14583 4 3.61458 4 4.15625C4 4.69792 4.19792 5.16667 4.59375 5.5625C4.98958 5.95833 5.45833 6.15625 6 6.15625C6.54167 6.15625 7.01042 5.95833 7.40625 5.5625C7.80208 5.16667 8 4.69792 8 4.15625C8 3.61458 7.80208 3.14583 7.40625 2.75ZM1.75 2.625C2.91667 1.4375 4.33333 0.84375 6 0.84375C7.66667 0.84375 9.08333 1.4375 10.25 2.625C11.4167 3.79167 12 5.19792 12 6.84375C12 8.21875 11.5729 9.4375 10.7188 10.5C9.88542 11.5625 8.82292 12.2708 7.53125 12.625L6 14.1562L4.46875 12.625C3.17708 12.2708 2.10417 11.5625 1.25 10.5C0.416667 9.4375 0 8.21875 0 6.84375C0 5.19792 0.583333 3.79167 1.75 2.625Z" fill="white"/>
</svg>
