<svg width="16" height="16" viewBox="0 0 16 16" fill="none" xmlns="http://www.w3.org/2000/svg">
<path d="M5.15625 10.8438C5.94792 11.6146 6.89583 12 8 12C9.10417 12 10.0417 11.6146 10.8125 10.8438C11.6042 10.0521 12 9.10417 12 8C12 6.89583 11.6042 5.95833 10.8125 5.1875C10.0417 4.39583 9.10417 4 8 4C6.89583 4 5.94792 4.39583 5.15625 5.1875C4.38542 5.95833 4 6.89583 4 8C4 9.10417 4.38542 10.0521 5.15625 10.8438ZM13.3438 10.2188V13.3438H10.2188L8 15.5312L5.78125 13.3438H2.65625V10.2188L0.46875 8L2.65625 5.78125V2.65625H5.78125L8 0.46875L10.2188 2.65625H13.3438V5.78125L15.5312 8L13.3438 10.2188Z" fill="black"/>
</svg>
