<svg width="16" height="4" viewBox="0 0 16 4" fill="none" xmlns="http://www.w3.org/2000/svg">
<path d="M6.71094 0.710938C7.08333 0.338542 7.51302 0.152344 8 0.152344C8.48698 0.152344 8.91667 0.338542 9.28906 0.710938C9.66146 1.08333 9.84766 1.51302 9.84766 2C9.84766 2.48698 9.66146 2.91667 9.28906 3.28906C8.91667 3.66146 8.48698 3.84766 8 3.84766C7.51302 3.84766 7.08333 3.66146 6.71094 3.28906C6.33854 2.91667 6.15234 2.48698 6.15234 2C6.15234 1.51302 6.33854 1.08333 6.71094 0.710938ZM12.2109 0.710938C12.5833 0.338542 13.013 0.152344 13.5 0.152344C13.987 0.152344 14.4167 0.338542 14.7891 0.710938C15.1615 1.08333 15.3477 1.51302 15.3477 2C15.3477 2.48698 15.1615 2.91667 14.7891 3.28906C14.4167 3.66146 13.987 3.84766 13.5 3.84766C13.013 3.84766 12.5833 3.66146 12.2109 3.28906C11.8385 2.91667 11.6523 2.48698 11.6523 2C11.6523 1.51302 11.8385 1.08333 12.2109 0.710938ZM1.21094 0.710938C1.58333 0.338542 2.01302 0.152344 2.5 0.152344C2.98698 0.152344 3.41667 0.338542 3.78906 0.710938C4.16146 1.08333 4.34766 1.51302 4.34766 2C4.34766 2.48698 4.16146 2.91667 3.78906 3.28906C3.41667 3.66146 2.98698 3.84766 2.5 3.84766C2.01302 3.84766 1.58333 3.66146 1.21094 3.28906C0.838542 2.91667 0.652344 2.48698 0.652344 2C0.652344 1.51302 0.838542 1.08333 1.21094 0.710938Z" fill="black"/>
</svg>
