<svg width="14" height="13" viewBox="0 0 14 13" fill="none" xmlns="http://www.w3.org/2000/svg">
<path d="M2.34375 11.1562H11.6875V7.15625H11.5312C10.9062 7.15625 10.4062 6.94792 10.0312 6.53125C9.61458 6.94792 9.11458 7.15625 8.53125 7.15625C7.96875 7.15625 7.45833 6.94792 7 6.53125C6.58333 6.94792 6.09375 7.15625 5.53125 7.15625C4.90625 7.15625 4.38542 6.94792 3.96875 6.53125C3.59375 6.94792 3.10417 7.15625 2.5 7.15625H2.34375V11.1562ZM1.6875 4.75C1.625 5.04167 1.6875 5.30208 1.875 5.53125C2.02083 5.73958 2.22917 5.84375 2.5 5.84375C2.9375 5.84375 3.19792 5.58333 3.28125 5.0625L3.6875 1.84375H2.375L1.6875 4.75ZM4.65625 4.9375C4.65625 5.16667 4.72917 5.375 4.875 5.5625C5.04167 5.75 5.23958 5.84375 5.46875 5.84375C5.71875 5.84375 5.92708 5.76042 6.09375 5.59375C6.26042 5.40625 6.34375 5.19792 6.34375 4.96875V1.84375H5.03125L4.65625 4.84375V4.9375ZM7.65625 1.84375V4.96875C7.65625 5.19792 7.73958 5.40625 7.90625 5.59375C8.07292 5.76042 8.26042 5.84375 8.46875 5.84375C8.73958 5.84375 8.95833 5.75 9.125 5.5625C9.3125 5.35417 9.38542 5.11458 9.34375 4.84375L8.96875 1.84375H7.65625ZM11.5938 1.8125L10.3125 1.84375L10.7188 5.0625C10.7396 5.27083 10.8229 5.45833 10.9688 5.625C11.1146 5.77083 11.2917 5.84375 11.5 5.84375C11.75 5.84375 11.9583 5.73958 12.125 5.53125C12.3125 5.30208 12.375 5.04167 12.3125 4.75L11.5938 1.8125ZM13.5938 4.4375C13.7604 5.16667 13.625 5.80208 13.1875 6.34375L13 6.53125V11.1562C13 11.5104 12.8646 11.8229 12.5938 12.0938C12.3229 12.3646 12.0104 12.5 11.6562 12.5H2.34375C1.98958 12.5 1.67708 12.3646 1.40625 12.0938C1.13542 11.8229 1 11.5104 1 11.1562V6.53125L0.8125 6.34375C0.375 5.80208 0.239583 5.16667 0.40625 4.4375L1.09375 1.5C1.15625 1.20833 1.3125 0.96875 1.5625 0.78125C1.8125 0.59375 2.08333 0.5 2.375 0.5H11.625C11.9167 0.5 12.1771 0.59375 12.4062 0.78125C12.6562 0.96875 12.8229 1.20833 12.9062 1.5L13.5938 4.4375Z" fill="#AE7AFF"/>
</svg>
