<svg width="20" height="18" viewBox="0 0 20 18" fill="none" xmlns="http://www.w3.org/2000/svg">
<path d="M3.59766 15.4023H16.4453V9.90234H16.2305C15.3711 9.90234 14.6836 9.61589 14.168 9.04297C13.5951 9.61589 12.9076 9.90234 12.1055 9.90234C11.332 9.90234 10.6302 9.61589 10 9.04297C9.42708 9.61589 8.75391 9.90234 7.98047 9.90234C7.12109 9.90234 6.40495 9.61589 5.83203 9.04297C5.31641 9.61589 4.64323 9.90234 3.8125 9.90234H3.59766V15.4023ZM2.69531 6.59375C2.60938 6.99479 2.69531 7.35286 2.95312 7.66797C3.15365 7.95443 3.4401 8.09766 3.8125 8.09766C4.41406 8.09766 4.77214 7.73958 4.88672 7.02344L5.44531 2.59766H3.64062L2.69531 6.59375ZM6.77734 6.85156C6.77734 7.16667 6.8776 7.45312 7.07812 7.71094C7.30729 7.96875 7.57943 8.09766 7.89453 8.09766C8.23828 8.09766 8.52474 7.98307 8.75391 7.75391C8.98307 7.49609 9.09766 7.20964 9.09766 6.89453V2.59766H7.29297L6.77734 6.72266V6.85156ZM10.9023 2.59766V6.89453C10.9023 7.20964 11.0169 7.49609 11.2461 7.75391C11.4753 7.98307 11.7331 8.09766 12.0195 8.09766C12.3919 8.09766 12.6927 7.96875 12.9219 7.71094C13.1797 7.42448 13.2799 7.09505 13.2227 6.72266L12.707 2.59766H10.9023ZM16.3164 2.55469L14.5547 2.59766L15.1133 7.02344C15.1419 7.3099 15.2565 7.56771 15.457 7.79688C15.6576 7.9974 15.901 8.09766 16.1875 8.09766C16.5312 8.09766 16.8177 7.95443 17.0469 7.66797C17.3047 7.35286 17.3906 6.99479 17.3047 6.59375L16.3164 2.55469ZM19.0664 6.16406C19.2956 7.16667 19.1094 8.04036 18.5078 8.78516L18.25 9.04297V15.4023C18.25 15.8893 18.0638 16.319 17.6914 16.6914C17.319 17.0638 16.8893 17.25 16.4023 17.25H3.59766C3.11068 17.25 2.68099 17.0638 2.30859 16.6914C1.9362 16.319 1.75 15.8893 1.75 15.4023V9.04297L1.49219 8.78516C0.890625 8.04036 0.704427 7.16667 0.933594 6.16406L1.87891 2.125C1.96484 1.72396 2.17969 1.39453 2.52344 1.13672C2.86719 0.878906 3.23958 0.75 3.64062 0.75H16.3594C16.7604 0.75 17.1185 0.878906 17.4336 1.13672C17.7773 1.39453 18.0065 1.72396 18.1211 2.125L19.0664 6.16406Z" fill="black"/>
</svg>
