<svg width="14" height="15" viewBox="0 0 14 15" fill="none" xmlns="http://www.w3.org/2000/svg">
<path d="M10.4062 11.9062C10.6771 11.6354 10.9896 11.5 11.3438 11.5C11.6979 11.5 12 11.6354 12.25 11.9062C12.5208 12.1771 12.6562 12.4896 12.6562 12.8438C12.6562 13.1979 12.5208 13.5104 12.25 13.7812C12 14.0312 11.6979 14.1562 11.3438 14.1562C10.9896 14.1562 10.6771 14.0312 10.4062 13.7812C10.1354 13.5104 10 13.1979 10 12.8438C10 12.4896 10.1354 12.1771 10.4062 11.9062ZM0.65625 0.84375H2.84375L3.46875 2.15625H13.3438C13.5312 2.15625 13.6875 2.22917 13.8125 2.375C13.9375 2.5 14 2.65625 14 2.84375C14 2.86458 13.9688 2.96875 13.9062 3.15625L11.5312 7.46875C11.2812 7.92708 10.8958 8.15625 10.375 8.15625H5.40625L4.8125 9.25L4.78125 9.34375C4.78125 9.44792 4.83333 9.5 4.9375 9.5H12.6562V10.8438H4.65625C4.30208 10.8438 3.98958 10.7083 3.71875 10.4375C3.46875 10.1667 3.34375 9.85417 3.34375 9.5C3.34375 9.29167 3.39583 9.08333 3.5 8.875L4.40625 7.21875L2 2.15625H0.65625V0.84375ZM3.71875 11.9062C3.98958 11.6354 4.30208 11.5 4.65625 11.5C5.01042 11.5 5.32292 11.6354 5.59375 11.9062C5.86458 12.1771 6 12.4896 6 12.8438C6 13.1979 5.86458 13.5104 5.59375 13.7812C5.32292 14.0312 5.01042 14.1562 4.65625 14.1562C4.30208 14.1562 3.98958 14.0312 3.71875 13.7812C3.46875 13.5104 3.34375 13.1979 3.34375 12.8438C3.34375 12.4896 3.46875 12.1771 3.71875 11.9062Z" fill="#AE7AFF"/>
</svg>
