<svg width="52" height="16" viewBox="0 0 52 16" fill="none" xmlns="http://www.w3.org/2000/svg">
<circle cx="4" cy="8" r="4" fill="#98E9AB"/>
<mask id="mask0_145_60787" style="mask-type:luminance" maskUnits="userSpaceOnUse" x="0" y="4" width="8" height="8">
<circle cx="4" cy="8" r="4" fill="white"/>
</mask>
<g mask="url(#mask0_145_60787)">
</g>
<path d="M14.6094 7.99219V7.47656C14.6094 6.12891 14.9707 5.0957 15.6934 4.37695C16.4199 3.6543 17.3535 3.29297 18.4941 3.29297C19.6387 3.29297 20.5742 3.6543 21.3008 4.37695C22.0312 5.0957 22.3965 6.12891 22.3965 7.47656V7.99219C22.3965 9.33984 22.0312 10.375 21.3008 11.0977C20.5742 11.8164 19.6387 12.1758 18.4941 12.1758C17.3535 12.1758 16.4199 11.8164 15.6934 11.0977C14.9707 10.375 14.6094 9.33984 14.6094 7.99219ZM16.3965 8.10352C16.3965 8.99805 16.5859 9.67773 16.9648 10.1426C17.3477 10.6074 17.8594 10.8398 18.5 10.8398C19.1406 10.8398 19.6523 10.6074 20.0352 10.1426C20.418 9.67773 20.6094 8.99805 20.6094 8.10352V7.37109C20.6094 6.47266 20.418 5.79102 20.0352 5.32617C19.6523 4.86133 19.1387 4.62891 18.4941 4.62891C17.8574 4.62891 17.3477 4.86133 16.9648 5.32617C16.5859 5.79102 16.3965 6.47266 16.3965 7.37109V8.10352ZM23.8086 12V5.72461H25.4023L25.4434 6.45117H25.4785C25.6582 6.19336 25.9102 5.98828 26.2344 5.83594C26.5625 5.67969 26.9219 5.60156 27.3125 5.60156C27.9727 5.60156 28.5078 5.78906 28.918 6.16406C29.3281 6.53516 29.5332 7.17969 29.5332 8.09766V12H27.8457V8.05664C27.8457 7.63086 27.7539 7.33008 27.5703 7.1543C27.3867 6.97852 27.127 6.89062 26.791 6.89062C26.5137 6.89062 26.2598 6.9707 26.0293 7.13086C25.7988 7.28711 25.6211 7.50195 25.4961 7.77539V12H23.8086ZM31.0977 12V3.01758H32.7852V12H31.0977ZM34.4316 12V5.72461H36.125V12H34.4316ZM34.2852 4.01367C34.2852 3.75977 34.3711 3.54687 34.543 3.375C34.7148 3.20313 34.959 3.11719 35.2754 3.11719C35.5957 3.11719 35.8398 3.20313 36.0078 3.375C36.1797 3.54687 36.2656 3.75977 36.2656 4.01367C36.2656 4.27148 36.1797 4.48633 36.0078 4.6582C35.8398 4.83008 35.5957 4.91602 35.2754 4.91602C34.959 4.91602 34.7148 4.83008 34.543 4.6582C34.3711 4.48633 34.2852 4.27148 34.2852 4.01367ZM37.7422 12V5.72461H39.3359L39.377 6.45117H39.4121C39.5918 6.19336 39.8438 5.98828 40.168 5.83594C40.4961 5.67969 40.8555 5.60156 41.2461 5.60156C41.9062 5.60156 42.4414 5.78906 42.8516 6.16406C43.2617 6.53516 43.4668 7.17969 43.4668 8.09766V12H41.7793V8.05664C41.7793 7.63086 41.6875 7.33008 41.5039 7.1543C41.3203 6.97852 41.0605 6.89062 40.7246 6.89062C40.4473 6.89062 40.1934 6.9707 39.9629 7.13086C39.7324 7.28711 39.5547 7.50195 39.4297 7.77539V12H37.7422ZM44.6621 8.95312V8.76562C44.6621 7.80469 44.9531 7.0293 45.5352 6.43945C46.1172 5.8457 46.8672 5.54883 47.7852 5.54883C48.7109 5.54883 49.4336 5.82617 49.9531 6.38086C50.4766 6.93555 50.7383 7.69727 50.7383 8.66602V9.27539H45.8223V8.19141H49.0566V8.08594C49.0527 7.73438 48.9453 7.42578 48.7344 7.16016C48.5234 6.89453 48.2031 6.76172 47.7734 6.76172C47.3125 6.76172 46.959 6.94141 46.7129 7.30078C46.4668 7.65625 46.3438 8.125 46.3438 8.70703V9.01172C46.3438 9.58594 46.4746 10.0527 46.7363 10.4121C47.002 10.7676 47.3965 10.9453 47.9199 10.9453C48.2676 10.9453 48.5703 10.8613 48.8281 10.6934C49.0859 10.5254 49.2949 10.332 49.4551 10.1133L50.6152 10.9102C50.416 11.2617 50.0801 11.5605 49.6074 11.8066C49.1387 12.0527 48.582 12.1758 47.9375 12.1758C46.9062 12.1758 46.1016 11.8809 45.5234 11.291C44.9492 10.6973 44.6621 9.91797 44.6621 8.95312Z" fill="black"/>
</svg>
