<svg width="40" height="40" viewBox="0 0 40 40" fill="none" xmlns="http://www.w3.org/2000/svg">
<path d="M16.2188 20.4688C16.8021 21.0521 17.5104 21.3438 18.3438 21.3438C19.1771 21.3438 19.8854 21.0521 20.4688 20.4688C21.0521 19.8854 21.3438 19.1771 21.3438 18.3438C21.3438 17.5104 21.0521 16.8021 20.4688 16.2188C19.8854 15.6354 19.1771 15.3438 18.3438 15.3438C17.5104 15.3438 16.8021 15.6354 16.2188 16.2188C15.6354 16.8021 15.3438 17.5104 15.3438 18.3438C15.3438 19.1771 15.6354 19.8854 16.2188 20.4688ZM22.3438 21.3438L25.6562 24.6562L24.6562 25.6562L21.3438 22.3438V21.8125L21.1562 21.625C20.3646 22.3125 19.4271 22.6562 18.3438 22.6562C17.1354 22.6562 16.1042 22.2396 15.25 21.4062C14.4167 20.5729 14 19.5521 14 18.3438C14 17.1354 14.4167 16.1146 15.25 15.2812C16.1042 14.4271 17.1354 14 18.3438 14C19.5521 14 20.5729 14.4271 21.4062 15.2812C22.2396 16.1146 22.6562 17.1354 22.6562 18.3438C22.6562 18.7812 22.5521 19.2812 22.3438 19.8438C22.1354 20.3854 21.8958 20.8229 21.625 21.1562L21.8125 21.3438H22.3438Z" fill="white"/>
</svg>
